<?xml version="1.0" standalone="no"?>
<!DOCTYPE svg PUBLIC "-//W3C//DTD SVG 20010904//EN"
 "http://www.w3.org/TR/2001/REC-SVG-20010904/DTD/svg10.dtd">
<svg version="1.0" xmlns="http://www.w3.org/2000/svg"
 width="300.000000pt" height="300.000000pt" viewBox="0 0 300.000000 300.000000"
 preserveAspectRatio="xMidYMid meet">
<metadata>
Created by potrace 1.11, written by Peter Selinger 2001-2013
</metadata>
<g transform="translate(0.000000,300.000000) scale(0.100000,-0.100000)"
fill="#000000" stroke="none">
<path d="M680 2013 l0 -238 235 235 c129 129 235 236 235 237 0 2 -106 3 -235
3 l-235 0 0 -237z"/>
<path d="M1147 1772 l-467 -467 0 -240 0 -240 618 618 617 618 -55 51 c-51 48
-162 109 -220 122 -23 5 -75 -44 -493 -462z"/>
<path d="M1415 1100 l-600 -600 240 0 240 0 368 368 368 368 -51 77 c-28 42
-55 79 -60 82 -5 3 6 29 25 58 49 74 104 247 78 247 -4 0 -278 -270 -608 -600z"/>
</g>
</svg>
